<?xml version="1.0" encoding="UTF-8"?>
<svg id="Layer_1" xmlns="http://www.w3.org/2000/svg" xmlns:xlink="http://www.w3.org/1999/xlink" version="1.1" viewBox="0 0 501.1 472.9">
  <!-- Generator: Adobe Illustrator 29.5.1, SVG Export Plug-In . SVG Version: 2.1.0 Build 141)  -->
  <defs>
    <style>
      .st0 {
        fill: url(#linear-gradient2);
      }

      .st1 {
        fill: url(#linear-gradient1);
      }

      .st2 {
        fill: url(#linear-gradient9);
      }

      .st3 {
        fill: url(#linear-gradient3);
      }

      .st4 {
        fill: url(#linear-gradient6);
      }

      .st5 {
        fill: url(#linear-gradient8);
      }

      .st6 {
        fill: url(#linear-gradient7);
      }

      .st7 {
        fill: url(#linear-gradient5);
      }

      .st8 {
        fill: url(#linear-gradient4);
      }

      .st9 {
        fill: url(#linear-gradient31);
      }

      .st10 {
        fill: url(#linear-gradient30);
      }

      .st11 {
        fill: url(#linear-gradient32);
      }

      .st12 {
        fill: url(#linear-gradient28);
      }

      .st13 {
        fill: url(#linear-gradient29);
      }

      .st14 {
        fill: url(#linear-gradient18);
      }

      .st15 {
        fill: url(#linear-gradient13);
      }

      .st16 {
        fill: url(#linear-gradient12);
      }

      .st17 {
        fill: url(#linear-gradient15);
      }

      .st18 {
        fill: url(#linear-gradient16);
      }

      .st19 {
        fill: url(#linear-gradient11);
      }

      .st20 {
        fill: url(#linear-gradient10);
      }

      .st21 {
        fill: url(#linear-gradient17);
      }

      .st22 {
        fill: url(#linear-gradient14);
      }

      .st23 {
        fill: url(#linear-gradient19);
      }

      .st24 {
        fill: url(#linear-gradient23);
      }

      .st25 {
        fill: url(#linear-gradient22);
      }

      .st26 {
        fill: url(#linear-gradient24);
      }

      .st27 {
        fill: url(#linear-gradient25);
      }

      .st28 {
        fill: url(#linear-gradient21);
      }

      .st29 {
        fill: url(#linear-gradient20);
      }

      .st30 {
        fill: url(#linear-gradient27);
      }

      .st31 {
        fill: url(#linear-gradient26);
      }

      .st32 {
        fill: url(#linear-gradient);
      }

      .st33 {
        clip-path: url(#clippath-1);
      }

      .st34 {
        clip-path: url(#clippath-2);
      }

      .st35 {
        clip-path: url(#clippath);
      }
    </style>
    <linearGradient id="linear-gradient" x1="302" y1="116.1" x2="355.4" y2="116.1" gradientUnits="userSpaceOnUse">
      <stop offset="0" stop-color="#e7af5c"/>
      <stop offset="1" stop-color="#dd9847"/>
    </linearGradient>
    <linearGradient id="linear-gradient1" x1="306.5" y1="147.1" x2="363.9" y2="147.1" xlink:href="#linear-gradient"/>
    <linearGradient id="linear-gradient2" x1="306.5" y1="147.1" x2="363.9" y2="147.1" xlink:href="#linear-gradient"/>
    <clipPath id="clippath">
      <rect class="st0" x="306.5" y="143.3" width="57.4" height="7.6"/>
    </clipPath>
    <linearGradient id="linear-gradient3" x1="306.5" y1="147.1" x2="363.9" y2="147.1" xlink:href="#linear-gradient"/>
    <linearGradient id="linear-gradient4" x1="301.4" y1="179.8" x2="354.5" y2="179.8" xlink:href="#linear-gradient"/>
    <linearGradient id="linear-gradient5" x1="146.4" y1="179.6" x2="199.8" y2="179.6" xlink:href="#linear-gradient"/>
    <linearGradient id="linear-gradient6" x1="137.2" y1="147.1" x2="195.4" y2="147.1" xlink:href="#linear-gradient"/>
    <linearGradient id="linear-gradient7" x1="137.2" y1="147.1" x2="195.4" y2="147.1" xlink:href="#linear-gradient"/>
    <clipPath id="clippath-1">
      <rect class="st6" x="137.2" y="143.3" width="58.2" height="7.6"/>
    </clipPath>
    <linearGradient id="linear-gradient8" x1="137.2" y1="147.1" x2="194.6" y2="147.1" xlink:href="#linear-gradient"/>
    <linearGradient id="linear-gradient9" x1="146.4" y1="115" x2="199.5" y2="115" xlink:href="#linear-gradient"/>
    <linearGradient id="linear-gradient10" x1="169.6" y1="88.1" x2="212.1" y2="88.1" xlink:href="#linear-gradient"/>
    <linearGradient id="linear-gradient11" x1="289.1" y1="88" x2="331.6" y2="88" xlink:href="#linear-gradient"/>
    <linearGradient id="linear-gradient12" x1="270.5" y1="70" x2="296.3" y2="70" xlink:href="#linear-gradient"/>
    <linearGradient id="linear-gradient13" x1="247.6" y1="63.1" x2="255.1" y2="63.1" xlink:href="#linear-gradient"/>
    <linearGradient id="linear-gradient14" x1="247.6" y1="63.1" x2="255.1" y2="63.1" xlink:href="#linear-gradient"/>
    <clipPath id="clippath-2">
      <rect class="st22" x="247.6" y="34.3" width="7.6" height="57.6"/>
    </clipPath>
    <linearGradient id="linear-gradient15" x1="247.7" y1="63.2" x2="254.9" y2="63.2" xlink:href="#linear-gradient"/>
    <linearGradient id="linear-gradient16" x1="221" y1="147.2" x2="280.1" y2="147.2" xlink:href="#linear-gradient"/>
    <linearGradient id="linear-gradient17" x1="205.5" y1="69.4" x2="232.1" y2="69.4" xlink:href="#linear-gradient"/>
    <linearGradient id="linear-gradient18" x1="193.5" y1="223.6" x2="307.6" y2="223.6" xlink:href="#linear-gradient"/>
    <linearGradient id="linear-gradient19" x1="72.9" y1="389.8" x2="122.7" y2="389.8" xlink:href="#linear-gradient"/>
    <linearGradient id="linear-gradient20" x1="124.5" y1="390" x2="165.4" y2="390" xlink:href="#linear-gradient"/>
    <linearGradient id="linear-gradient21" x1="169.1" y1="389.8" x2="218.9" y2="389.8" xlink:href="#linear-gradient"/>
    <linearGradient id="linear-gradient22" x1="222.6" y1="390" x2="268.2" y2="390" xlink:href="#linear-gradient"/>
    <linearGradient id="linear-gradient23" x1="274.9" y1="390" x2="314.6" y2="390" xlink:href="#linear-gradient"/>
    <linearGradient id="linear-gradient24" x1="319.3" y1="390" x2="378.6" y2="390" xlink:href="#linear-gradient"/>
    <linearGradient id="linear-gradient25" x1="382.1" y1="390" x2="428.5" y2="390" xlink:href="#linear-gradient"/>
    <linearGradient id="linear-gradient26" x1="71.1" y1="317.7" x2="145.3" y2="317.7" xlink:href="#linear-gradient"/>
    <linearGradient id="linear-gradient27" x1="149.7" y1="317.7" x2="207.8" y2="317.7" xlink:href="#linear-gradient"/>
    <linearGradient id="linear-gradient28" x1="232.3" y1="317.7" x2="288.1" y2="317.7" xlink:href="#linear-gradient"/>
    <linearGradient id="linear-gradient29" x1="295.2" y1="317.7" x2="321.5" y2="317.7" xlink:href="#linear-gradient"/>
    <linearGradient id="linear-gradient30" x1="328.8" y1="317.7" x2="376.2" y2="317.7" xlink:href="#linear-gradient"/>
    <linearGradient id="linear-gradient31" x1="379.9" y1="317.7" x2="431" y2="317.7" xlink:href="#linear-gradient"/>
    <linearGradient id="linear-gradient32" x1="-518.2" y1="317.7" x2="-83.2" y2="317.7" xlink:href="#linear-gradient"/>
  </defs>
  <path class="st32" d="M355.1,105.3h0c0,.2.2.4.2.7,0,.2,0,.5,0,.7s0,.5,0,.7c0,.2-.1.4-.2.7,0,.2-.2.4-.3.6-.1.2-.3.4-.4.5-.2.2-.4.3-.5.4-.2.1-.4.2-.6.3l-46.3,18.9c-.2,0-.4.2-.7.2s-.5,0-.7,0-.5,0-.7,0c-.2,0-.5-.1-.7-.2-.2,0-.4-.2-.6-.3-.2-.1-.4-.3-.5-.4-.2-.2-.3-.3-.4-.5s-.2-.4-.3-.6h0c0-.2-.1-.4-.2-.7,0-.2,0-.5,0-.7s0-.5,0-.7c0-.2.1-.4.2-.7,0-.2.2-.4.3-.6.1-.2.3-.4.4-.5.2-.2.3-.3.5-.4.2-.1.4-.2.6-.3l46.3-18.9c.2,0,.4-.2.7-.2.2,0,.5,0,.7,0s.5,0,.7,0c.2,0,.5.1.7.2.2,0,.4.2.6.3.2.1.4.3.5.4s.3.3.4.5.2.4.3.6"/>
  <g>
    <rect class="st1" x="306.5" y="143.3" width="57.4" height="7.6"/>
    <g class="st35">
      <path class="st3" d="M306.5,147.1h0c0-.2,0-.5,0-.7,0-.2.1-.5.2-.7s.2-.4.3-.6c.1-.2.3-.4.4-.5.2-.2.4-.3.5-.4.2-.1.4-.2.6-.3s.4-.2.7-.2c.2,0,.5,0,.7,0h50.2c.2,0,.5,0,.7,0s.5.1.7.2.4.2.6.3c.2.1.4.3.5.4.2.2.3.4.4.5.1.2.2.4.3.6s.2.4.2.7,0,.5,0,.7h0c0,.2,0,.5,0,.7,0,.2-.1.4-.2.7,0,.2-.2.4-.3.6-.1.2-.3.4-.4.5-.2.2-.4.3-.5.4-.2.1-.4.2-.6.3-.2,0-.4.2-.7.2-.2,0-.5,0-.7,0h-50.2c-.2,0-.5,0-.7,0-.2,0-.5-.1-.7-.2-.2,0-.4-.2-.6-.3-.2-.1-.4-.3-.5-.4-.2-.2-.3-.4-.4-.5-.1-.2-.2-.4-.3-.6s-.2-.4-.2-.7c0-.2,0-.5,0-.7"/>
    </g>
  </g>
  <path class="st8" d="M301.6,168.7h0c0-.2.2-.4.3-.6.1-.2.3-.4.5-.5.2-.2.3-.3.5-.4s.4-.2.6-.3c.2,0,.4-.1.7-.2.2,0,.5,0,.7,0s.5,0,.7,0c.2,0,.5.1.7.2l46,19.4c.2,0,.4.2.6.3.2.1.4.3.5.4.2.2.3.4.4.5.1.2.2.4.3.6s.1.4.2.7c0,.2,0,.5,0,.7,0,.2,0,.5,0,.7,0,.2-.1.4-.2.7h0c0,.2-.2.4-.3.6-.1.2-.3.4-.5.5-.2.2-.3.3-.5.4-.2.1-.4.2-.6.3-.2,0-.4.1-.7.2s-.5,0-.7,0-.5,0-.7,0-.5-.1-.7-.2l-46-19.4c-.2,0-.4-.2-.6-.3-.2-.1-.4-.3-.5-.4-.2-.2-.3-.4-.4-.5-.1-.2-.2-.4-.3-.6s-.1-.4-.2-.7c0-.2,0-.5,0-.7s0-.5,0-.7c0-.2.1-.4.2-.7"/>
  <path class="st7" d="M146.7,190.4h0c0-.2-.2-.4-.2-.7,0-.2,0-.5,0-.7s0-.5,0-.7c0-.2.1-.4.2-.7s.2-.4.3-.6c.1-.2.3-.4.4-.5.2-.2.4-.3.5-.4.2-.1.4-.2.6-.3l46.3-18.9c.2,0,.4-.1.7-.2s.5,0,.7,0,.5,0,.7,0c.2,0,.4.1.7.2.2,0,.4.2.6.3s.4.3.5.4c.2.2.3.3.4.5.1.2.2.4.3.6h0c0,.2.1.4.2.7s0,.5,0,.7,0,.5,0,.7c0,.2-.1.4-.2.7,0,.2-.2.4-.3.6-.1.2-.3.4-.4.5-.2.2-.4.3-.5.4-.2.1-.4.2-.6.3l-46.3,18.9c-.2,0-.4.1-.7.2s-.5,0-.7,0-.5,0-.7,0c-.2,0-.4-.1-.7-.2-.2,0-.4-.2-.6-.3-.2-.1-.4-.3-.5-.4-.2-.2-.3-.4-.4-.5-.1-.2-.2-.4-.3-.6"/>
  <g>
    <rect class="st4" x="137.2" y="143.3" width="58.2" height="7.6"/>
    <g class="st33">
      <path class="st5" d="M137.2,147.1h0c0-.2,0-.5,0-.7,0-.2.1-.4.2-.7s.2-.4.3-.6c.1-.2.3-.4.4-.5.2-.2.4-.3.5-.4.2-.1.4-.2.6-.3s.4-.2.7-.2c.2,0,.5,0,.7,0h50.2c.2,0,.5,0,.7,0s.4.1.7.2.4.2.6.3.4.3.5.4c.2.2.3.4.4.5.1.2.2.4.3.6s.2.4.2.7c0,.2,0,.5,0,.7h0c0,.2,0,.5,0,.7,0,.2-.1.4-.2.7s-.2.4-.3.6-.3.4-.4.5c-.2.2-.4.3-.5.4-.2.1-.4.2-.6.3s-.4.2-.7.2c-.2,0-.5,0-.7,0h-50.2c-.2,0-.5,0-.7,0s-.4-.1-.7-.2-.4-.2-.6-.3-.4-.3-.5-.4c-.2-.2-.3-.4-.4-.5-.1-.2-.2-.4-.3-.6s-.2-.4-.2-.7c0-.2,0-.5,0-.7"/>
    </g>
  </g>
  <path class="st2" d="M146.7,103.9h0c0-.2.2-.4.3-.6.1-.2.3-.4.4-.5s.3-.3.5-.4c.2-.1.4-.2.6-.3.2,0,.4-.2.7-.2.2,0,.5,0,.7,0,.2,0,.5,0,.7,0,.2,0,.4.1.7.2l46,19.5c.2,0,.4.2.6.3.2.1.4.3.5.4.2.2.3.3.4.5s.2.4.3.6c0,.2.1.4.2.7,0,.2,0,.5,0,.7s0,.5,0,.7c0,.2-.1.4-.2.7h0c0,.2-.2.4-.3.6-.1.2-.3.4-.4.5-.2.2-.4.3-.5.4-.2.1-.4.2-.6.3-.2,0-.4.2-.7.2-.2,0-.5,0-.7,0-.2,0-.5,0-.7,0-.2,0-.4-.1-.7-.2l-46-19.4c-.2,0-.4-.2-.6-.3-.2-.1-.4-.3-.5-.4s-.3-.3-.4-.5-.2-.4-.3-.6c0-.2-.1-.4-.2-.7,0-.2,0-.5,0-.7,0-.2,0-.5,0-.7,0-.2.1-.4.2-.7"/>
  <path class="st20" d="M170.7,67.9h0c.2-.2.4-.3.5-.4.2-.1.4-.2.6-.3.2,0,.4-.2.7-.2.2,0,.5,0,.7,0s.5,0,.7,0,.4.1.7.2.4.2.6.3c.2.1.4.3.5.4l35.3,35.3c.2.2.3.3.4.5.1.2.2.4.3.6,0,.2.2.4.2.7,0,.2,0,.5,0,.7s0,.5,0,.7c0,.2-.1.4-.2.7s-.2.4-.3.6c-.1.2-.3.4-.4.5h0c-.2.2-.3.3-.5.4-.2.1-.4.2-.6.3-.2,0-.4.2-.7.2-.2,0-.5,0-.7,0s-.5,0-.7,0-.4-.1-.7-.2-.4-.2-.6-.3c-.2-.1-.4-.3-.5-.4l-35.3-35.3c-.2-.2-.3-.3-.4-.5s-.2-.4-.3-.6c0-.2-.2-.4-.2-.7,0-.2,0-.5,0-.7s0-.5,0-.7c0-.2.1-.4.2-.7,0-.2.2-.4.3-.6.1-.2.3-.4.4-.5"/>
  <path class="st19" d="M330.5,67.9h0c.2.2.3.3.4.5s.2.4.3.6c0,.2.2.4.2.7,0,.2,0,.5,0,.7s0,.5,0,.7c0,.2-.1.4-.2.7,0,.2-.2.4-.3.6-.1.2-.3.4-.4.5l-35.3,35.3c-.2.2-.4.3-.5.4s-.4.2-.6.3c-.2,0-.4.2-.7.2-.2,0-.5,0-.7,0s-.5,0-.7,0-.5-.1-.7-.2c-.2,0-.4-.2-.6-.3-.2-.1-.4-.3-.5-.4h0c-.2-.2-.3-.3-.4-.5s-.2-.4-.3-.6c0-.2-.1-.4-.2-.7,0-.2,0-.5,0-.7s0-.5,0-.7c0-.2.1-.4.2-.7,0-.2.2-.4.3-.6.1-.2.3-.4.4-.5l35.3-35.3c.2-.2.4-.3.5-.4.2-.1.4-.2.6-.3.2,0,.4-.2.7-.2.2,0,.5,0,.7,0s.5,0,.7,0,.5.1.7.2.4.2.6.3c.2.1.4.3.5.4"/>
  <path class="st16" d="M294,43.5h0c.2,0,.4.2.6.3.2.1.4.3.5.4.2.2.3.3.5.5s.2.4.3.6c0,.2.2.4.2.7s0,.5,0,.7c0,.2,0,.5,0,.7s-.1.5-.2.7l-18.6,46.4c0,.2-.2.4-.3.6-.1.2-.3.4-.4.5-.2.2-.3.3-.5.4s-.4.2-.6.3c-.2,0-.4.2-.7.2-.2,0-.5,0-.7,0-.2,0-.5,0-.7,0s-.5-.1-.7-.2h0c-.2,0-.4-.2-.6-.3-.2-.1-.4-.3-.5-.4-.2-.2-.3-.3-.5-.5-.1-.2-.2-.4-.3-.6s-.2-.4-.2-.7,0-.5,0-.7c0-.2,0-.5,0-.7s.1-.4.2-.7l18.6-46.4c0-.2.2-.4.3-.6.1-.2.3-.4.4-.5.2-.2.3-.3.5-.5.2-.1.4-.2.6-.3s.4-.2.7-.2c.2,0,.5,0,.7,0s.5,0,.7,0,.5,0,.7.2"/>
  <g>
    <rect class="st15" x="247.6" y="34.3" width="7.6" height="57.6"/>
    <g class="st34">
      <path class="st17" d="M251.3,34.5h0c.2,0,.5,0,.7,0,.2,0,.4.1.7.2s.4.2.6.3c.2.1.4.3.5.4.2.2.3.3.4.5.1.2.2.4.3.6,0,.2.2.4.2.7,0,.2,0,.5,0,.7v50.2c0,.2,0,.5,0,.7,0,.2-.1.4-.2.7s-.2.4-.3.6c-.1.2-.3.4-.4.5-.2.2-.4.3-.5.4-.2.1-.4.2-.6.3-.2,0-.4.2-.7.2-.2,0-.5,0-.7,0h0c-.2,0-.5,0-.7,0s-.4-.1-.7-.2-.4-.2-.6-.3c-.2-.1-.4-.3-.5-.4-.2-.2-.3-.3-.4-.5-.1-.2-.2-.4-.3-.6s-.2-.4-.2-.7c0-.2,0-.5,0-.7v-50.2c0-.2,0-.5,0-.7s.1-.5.2-.7c0-.2.2-.4.3-.6.1-.2.3-.4.4-.5s.4-.3.5-.4c.2-.1.4-.2.6-.3s.4-.2.7-.2c.2,0,.5,0,.7,0"/>
    </g>
  </g>
  <path class="st18" d="M250.6,176.7c-3.1,0-6.2-.5-9.2-1.5-2.8-.9-5.4-2.2-7.9-3.9-2.7-1.9-5-4.1-6.9-6.7-1.9-2.6-3.3-5.4-4.3-8.4-1-2.9-1.3-6-1.5-9,.1-3.8.7-7.6,2.2-11.1,1.5-3.6,3.6-6.9,6.4-9.7,2.7-2.8,5.9-4.9,9.5-6.4,3.7-1.6,7.5-2.3,11.5-2.3,7.9,0,15.6,3.3,20.9,8.7,5.7,5.8,8.5,12.7,8.7,20.8-.1,8.1-2.9,15.2-8.7,20.9-5.7,5.8-12.8,8.6-20.9,8.7"/>
  <path class="st21" d="M207.6,43.1h0c.2,0,.4-.2.7-.2s.5,0,.7,0,.5,0,.7,0c.2,0,.4.1.7.2s.4.2.6.3c.2.1.4.3.5.4.2.2.3.3.4.5.1.2.2.4.3.6l19.5,46c0,.2.2.4.2.7,0,.2,0,.5,0,.7,0,.2,0,.5,0,.7,0,.2-.1.4-.2.7s-.2.4-.3.6c-.1.2-.3.4-.4.5-.2.2-.3.3-.5.4s-.4.2-.6.3h0c-.2,0-.4.2-.7.2-.2,0-.5,0-.7,0s-.5,0-.7,0-.4-.1-.7-.2-.4-.2-.6-.3c-.2-.1-.4-.3-.5-.4-.2-.2-.3-.3-.4-.5-.1-.2-.2-.4-.3-.6l-19.5-46c0-.2-.2-.4-.2-.7,0-.2,0-.5,0-.7,0-.2,0-.5,0-.7,0-.2.1-.5.2-.7,0-.2.2-.4.3-.6.1-.2.3-.4.4-.5.2-.2.3-.3.5-.5.2-.1.4-.2.6-.3"/>
  <path class="st14" d="M193.5,231.9c0-1.5,0-3,0-4.5,0-.9,0-1.8.1-2.6,0-.1,0-.2,0-.3,0-1.1.2-2.3.3-3.4.5-3.9,1.3-7.7,2.9-11.3,1.2-2.9,2.8-5.5,4.9-7.9,1.9-2.2,4.1-4.2,6.5-5.8,2.9-1.9,5.9-3.4,9.1-4.7,2.8-1.1,5.7-1.9,8.6-2.5,1.7-.4,3.5-.7,5.3-1,1.3-.2,2.7-.4,4-.6,1.1-.1,2.1-.2,3.2-.3,1.3-.2,2.6-.1,3.9-.3,1.1-.1,2.3-.1,3.4-.1,3.3,0,6.6,0,9.9,0,1.2,0,2.3,0,3.5.2.4,0,.8,0,1.2,0,.6,0,1.2,0,1.9.1.1,0,.2,0,.3,0,1.1,0,2.2.2,3.3.3.9,0,1.7.2,2.6.4,1,.1,2,.3,2.9.4,1.6.2,3.2.6,4.8,1,2.2.5,4.5,1.1,6.6,1.9,4,1.4,7.8,3.2,11.2,5.7,3.3,2.4,6.1,5.4,8.2,8.9,1.8,2.9,3,6,3.8,9.3.4,1.6.7,3.1.9,4.7.2,1.5.3,3,.5,4.5.3,3.6.1,7.3.1,11-.1,1.1-.1,2.2-.1,3.3,0,.5-.2,1-.4,1.5-.3.6-.6,1.2-1,1.8-1,1.4-2.2,2.7-3.5,3.9-1.4,1.2-2.9,2.4-4.4,3.4-1.2.9-2.5,1.6-3.8,2.4-4.3,2.4-8.8,4.2-13.4,5.6-2.4.7-4.8,1.3-7.2,1.8-1.4.3-2.8.6-4.2.8-1.3.2-2.5.4-3.8.6-.9.1-1.9.2-2.8.3-.3,0-.6,0-.9.1-.1,0-.3,0-.4,0-1.5,0-2.9.3-4.4.3-.8,0-1.7,0-2.5.1-.3,0-.6,0-.9,0-2,0-3.9,0-5.9,0s-1.5,0-2.2-.1c-.6,0-1.2,0-1.9,0-.8,0-1.5,0-2.3-.2,0,0-.1,0-.2,0-1.2,0-2.4-.2-3.6-.3-.9,0-1.9-.2-2.8-.4-.6,0-1.2-.1-1.7-.2-2.1-.3-4.1-.7-6.1-1.1-2.6-.5-5.2-1.2-7.7-2-4-1.3-7.9-2.8-11.6-4.8-2.9-1.6-5.6-3.3-8.1-5.4-1.6-1.4-3.1-2.8-4.3-4.5-.4-.6-.8-1.2-1.1-1.9-.4-.6-.5-1.4-.5-2.1,0-2,0-3.9,0-5.9h0,0Z"/>
  <g>
    <path class="st23" d="M87.8,412.8h-14.9v-2.4c1.2,0,2.3-.2,3.1-.6.8-.4,1.5-1.2,2.2-2.4.7-1.2,1.5-3,2.5-5.4l14.8-35.2h4.2l15.9,37.2c1,2.3,2,3.9,3,4.9s2.3,1.5,4.1,1.5v2.4h-19.7v-2.4c.7,0,1.3,0,2-.1.7,0,1.3-.3,1.8-.7s.7-.9.7-1.7,0-1.1-.3-1.9c-.2-.8-.5-1.6-.9-2.7l-2.7-6.3-.5-1.5-7.5-19.5h-.2l-7.8,19.5-.6,1.5-3.1,7.3c-.2.5-.4,1.1-.6,1.7-.2.6-.3,1.2-.3,1.9,0,1,.4,1.7,1.1,2s1.9.5,3.5.5v2.4h0ZM104.7,397.8h-18.8l1.1-3h16.6l1.1,3h0Z"/>
    <path class="st29" d="M146.4,413.5c-4.9,0-8.9-1-12.1-3s-5.7-4.8-7.3-8.3c-1.6-3.5-2.4-7.5-2.4-12s1-9.5,2.9-13,4.7-6.2,8.1-8c3.5-1.8,7.4-2.7,11.9-2.7s4.4.2,5.9.6c1.4.4,2.6.8,3.5,1.2.9.4,1.6.6,2.2.6s1.1-.2,1.4-.7c.3-.5.6-1,.9-1.7h2.4v16.2h-2.6c-.8-4.4-2.3-7.7-4.7-9.8-2.3-2.1-5.3-3.2-8.8-3.2s-8.4,1.7-10.9,5.2c-2.5,3.4-3.7,8.2-3.7,14.4s.6,8.2,1.9,11c1.3,2.8,3.1,4.9,5.5,6.3,2.4,1.3,5.2,2,8.4,2s6.1-.6,8.4-1.8c2.3-1.2,4.5-2.9,6.4-5l1.8,1.6c-1.3,1.9-2.9,3.7-4.6,5.2-1.7,1.5-3.7,2.8-6.1,3.7-2.4.9-5.1,1.4-8.4,1.4h0Z"/>
    <path class="st28" d="M184,412.8h-14.9v-2.4c1.2,0,2.3-.2,3.1-.6.8-.4,1.5-1.2,2.2-2.4.7-1.2,1.5-3,2.5-5.4l14.8-35.2h4.2l15.9,37.2c1,2.3,2,3.9,3,4.9s2.3,1.5,4.1,1.5v2.4h-19.7v-2.4c.6,0,1.3,0,2-.1.7,0,1.3-.3,1.8-.7s.7-.9.7-1.7-.1-1.1-.3-1.9c-.2-.8-.5-1.6-.9-2.7l-2.7-6.3-.5-1.5-7.5-19.5h-.2l-7.8,19.5-.6,1.5-3.1,7.3c-.2.5-.4,1.1-.6,1.7-.2.6-.3,1.2-.3,1.9,0,1,.4,1.7,1.1,2s1.9.5,3.5.5v2.4h0ZM200.9,397.8h-18.8l1.1-3h16.6l1.1,3h0Z"/>
    <path class="st25" d="M242.6,412.8h-19.9v-2.4c2,0,3.4-.1,4.4-.5.9-.3,1.6-.9,1.8-1.9.3-1,.4-2.3.4-4.2v-28.5c0-1.7-.2-3-.6-3.8s-1.1-1.3-2-1.6c-1-.2-2.3-.4-4-.4v-2.4h19.3c3.6,0,6.9.4,10.1,1.1,3.2.7,6,1.9,8.4,3.6s4.3,4,5.7,6.8,2.1,6.5,2.1,10.8-.6,7.7-1.9,10.7c-1.2,3-3,5.4-5.3,7.2-2.3,1.9-5,3.2-8.1,4s-6.6,1.3-10.3,1.3h0ZM240.7,409.7c4,0,7.4-.5,10.2-1.6,2.8-1.1,5-3,6.6-5.9,1.5-2.8,2.3-6.8,2.3-12s-1.6-11.3-4.8-14.7-8.1-5.1-14.9-5.1h-1.5c-.5,0-1.1,0-1.7.1v39c.6,0,1.3,0,1.9.1.6,0,1.3,0,1.9,0h0Z"/>
    <path class="st24" d="M312.7,412.8h-37.8v-2.4c1.8,0,3.1-.1,4-.4,1-.2,1.6-.8,2-1.7s.5-2.2.5-4v-28.4c0-1.8-.2-3.1-.5-4-.3-.9-1-1.5-1.9-1.9-.9-.3-2.3-.5-4.2-.5v-2.4h37.1l.4,11.7h-2.6c-.3-2.2-.8-3.9-1.4-5.1s-1.7-2-3.1-2.4c-1.5-.4-3.6-.7-6.3-.7h-9.8v17h7.5c2.2,0,3.9-.2,5-.5,1.1-.3,1.8-1,2.2-1.9.4-1,.5-2.3.5-4.2h2.6v16.1h-2.6c0-1.9-.2-3.4-.5-4.3-.4-.9-1.1-1.5-2.2-1.8-1.1-.3-2.7-.4-5-.4h-7.5v18.5h8.7c2.5,0,4.6-.1,6.2-.4,1.6-.3,2.9-.8,3.8-1.5.9-.7,1.7-1.7,2.3-2.9s1.3-2.9,1.9-4.9h2.6l-1.9,13.1Z"/>
    <path class="st26" d="M336,412.8h-16.7v-2.4c1.9,0,3.3-.2,4.2-.5s1.5-1,1.8-2.2.5-2.9.5-5.2v-26.5c0-1.8-.1-3.1-.5-4-.3-.9-.9-1.5-1.8-1.9s-2.3-.5-4.1-.5v-2.4h15.9l14.1,33.9h.4l14-33.9h14.8v2.4c-1.6,0-2.9.2-3.7.5-.9.4-1.5,1-1.8,1.9-.3.9-.5,2.2-.5,3.9v28.5c0,1.6.2,2.9.5,3.7.4.9,1,1.5,1.8,1.8.9.3,2.1.5,3.7.5v2.4h-19.7v-2.4c1.8,0,3.1-.2,4-.5.9-.3,1.5-.9,1.7-1.8.3-.9.4-2.1.4-3.7v-29.1h-.4l-15.8,37.5h-2.8l-16-37.4h-.4v27.1c0,2.4.2,4.1.5,5.2.3,1.1.9,1.9,1.8,2.2s2.2.5,3.9.5v2.4h0Z"/>
    <path class="st27" d="M416.4,412.8h-21.7v-2.4c2,0,3.5-.1,4.5-.4,1-.3,1.6-.9,1.9-1.9.3-1,.5-2.5.5-4.5v-9.4l-9-14.7c-1.4-2.3-2.6-4.1-3.5-5.4s-1.9-2.3-2.6-2.9c-.8-.6-1.5-1.1-2.2-1.2-.7-.2-1.4-.3-2.2-.3v-2.4h19.6v2.4c-1.9,0-3.2.1-3.7.4s-.8.7-.8,1.2c0,.9.4,1.9,1.2,3.1l6.1,10.2,2.9,5.5h.4l8.9-16c.2-.3.4-.7.6-1.2.2-.5.2-.9.2-1.4s-.3-1-.8-1.4c-.5-.3-1.7-.5-3.5-.5v-2.4h15.3v2.4c-1.3,0-2.5.3-3.4.7s-1.8,1-2.6,1.8c-.8.9-1.8,2.2-2.9,4.1l-10.2,17.8v9.6c0,2,.2,3.5.6,4.5.4,1,1.1,1.6,2.1,1.9,1,.3,2.5.5,4.4.5v2.4h0Z"/>
  </g>
  <g>
    <path class="st31" d="M92,346.2h-20.9v-3c2.4,0,4.1-.2,5.3-.6,1.2-.4,1.9-1.3,2.3-2.7.4-1.4.6-3.6.6-6.5v-33.2c0-2.2-.2-3.9-.6-5-.4-1.1-1.1-1.9-2.3-2.3s-2.8-.6-5.2-.6v-3h19.9l17.6,42.5h.5l17.5-42.5h18.5v3c-2,0-3.6.2-4.7.6s-1.9,1.2-2.3,2.3c-.4,1.1-.6,2.8-.6,4.9v35.7c0,2,.2,3.6.6,4.7.4,1.1,1.2,1.9,2.3,2.3s2.7.6,4.7.6v3h-24.6v-3c2.3,0,3.9-.2,5-.6,1.1-.4,1.8-1.2,2.2-2.3.4-1.1.5-2.7.5-4.7v-36.4h-.4l-19.8,46.9h-3.6l-20-46.9h-.4v34c0,3,.2,5.1.6,6.5.4,1.4,1.2,2.3,2.3,2.7,1.1.4,2.8.6,4.9.6v3Z"/>
    <path class="st30" d="M192.7,346.2h-27.2v-3c2.5,0,4.4-.2,5.7-.5,1.2-.4,2.1-1.1,2.4-2.4.4-1.2.6-3.1.6-5.7v-11.7l-11.3-18.4c-1.7-2.9-3.2-5.2-4.4-6.8s-2.3-2.9-3.3-3.7c-1-.8-1.9-1.3-2.7-1.6-.8-.2-1.8-.4-2.8-.4v-3h24.6v3c-2.4,0-4,.2-4.7.5-.7.4-1,.8-1,1.5,0,1.1.5,2.4,1.5,3.9l7.6,12.8,3.6,6.9h.5l11.2-20c.3-.4.5-.9.7-1.5.2-.6.3-1.2.3-1.7s-.4-1.3-1-1.7c-.7-.4-2.1-.6-4.3-.6v-3h19.2v3c-1.7.1-3.1.4-4.2.8-1.2.4-2.3,1.2-3.3,2.3-1,1.1-2.3,2.8-3.6,5.1l-12.8,22.3v12c0,2.5.2,4.4.7,5.6.5,1.2,1.4,2,2.6,2.4,1.3.4,3.1.6,5.6.6v3h0Z"/>
    <path class="st12" d="M260.5,347.1c-9.4,0-16.5-2.6-21.2-7.7-4.7-5.1-7-12.3-7-21.6s1.2-12.1,3.7-16.5c2.5-4.4,5.9-7.7,10.2-9.9,4.3-2.2,9.2-3.3,14.7-3.3s5.6.3,7.5.8,3.3,1,4.4,1.6c1.1.5,2,.8,2.7.8s1.4-.3,1.8-.9c.4-.6.8-1.3,1.3-2.2h3v20.2h-3.4c-1-5.8-3-9.9-5.9-12.5-2.9-2.5-6.6-3.8-11.3-3.8s-10.4,2.2-13.5,6.5c-3.1,4.3-4.6,10.4-4.6,18s1.6,15.3,4.8,19.6c3.2,4.3,7.8,6.5,13.7,6.5s4.9-.4,6.7-1.1,3.6-1.8,5.3-3.1v-8.8c0-2.1-.2-3.7-.5-4.7s-1.1-1.8-2.2-2.2-2.8-.6-5-.6v-3.1h22.4v3.1c-2.4,0-4,.4-4.7,1.3s-1.1,2.6-1.1,5.3v12.2c-3.1,1.8-6.3,3.2-9.6,4.3-3.3,1.1-7.4,1.6-12.1,1.6h0Z"/>
    <path class="st13" d="M321.4,346.2h-26.2v-3c2.6,0,4.5-.2,5.7-.6s1.9-1.3,2.3-2.5c.3-1.2.5-3.1.5-5.6v-33.5c0-2.3-.1-4-.4-5.3-.3-1.3-1-2.2-2.2-2.7-1.2-.5-3.1-.8-5.8-.8v-3h26.3v3c-2.7,0-4.6.3-5.8.8s-1.9,1.4-2.2,2.7c-.3,1.3-.4,3.1-.4,5.3v33.5c0,2.5.2,4.4.5,5.6s1.1,2.1,2.3,2.5c1.2.4,3,.6,5.5.6v3h0Z"/>
    <path class="st10" d="M355.6,346.2h-26.8v-3c2.3,0,4-.2,5.2-.5,1.2-.4,2-1,2.4-2.1.4-1.1.6-2.7.6-4.8v-36.4c0-2-.2-3.5-.7-4.6-.5-1-1.3-1.7-2.6-2.1-1.2-.4-2.9-.6-5-.6v-3h46.9l.5,14.8h-3.3c-.4-2.1-.8-3.8-1.3-5.1-.4-1.3-1.1-2.4-2-3.1-.9-.8-2.1-1.3-3.8-1.6-1.6-.3-3.9-.5-6.7-.5h-12.7v21.4h9.1c2.5,0,4.4-.2,5.8-.6,1.4-.4,2.3-1.3,2.9-2.5s.8-3,.8-5.3h3.3v20.2h-3.3c0-2.4-.3-4.1-.8-5.2s-1.5-1.9-2.9-2.2c-1.4-.4-3.3-.5-5.8-.5h-9.1v17.4c0,2,.3,3.4.8,4.4.5,1,1.5,1.6,2.8,2,1.3.4,3.1.5,5.4.5v3h0Z"/>
    <path class="st9" d="M418.8,346.2h-26.6v-3c2.5,0,4.3-.2,5.5-.6,1.2-.4,2-1.2,2.4-2.4.4-1.2.6-3.2.6-5.8v-41.1h-5c-3.2,0-5.6.4-7.2,1s-2.7,1.9-3.4,3.6c-.7,1.7-1.4,4.1-2,7.3h-3.2l1-16.1h49.5l.7,16.1h-3.2c-.6-3.2-1.3-5.6-2-7.3-.7-1.7-1.8-2.9-3.4-3.6s-4-1-7.2-1h-5v41.1c0,2.6.2,4.5.6,5.8.4,1.2,1.2,2,2.4,2.4,1.2.4,3.1.6,5.5.6v3h0Z"/>
  </g>
  <!-- External image and off-screen rect removed -->
</svg>